<svg width="1114" height="1105" viewBox="0 0 1114 1105" fill="none" xmlns="http://www.w3.org/2000/svg">
<path d="M1008.19 1020.95L1112.05 308.7C1115.6 284.246 1109.35 258.368 1093.84 232.087C1077.56 205.558 1053.65 186.828 1023.44 177.168C993.994 167.756 964.929 167.847 935.994 178.214C909.632 188.551 889.253 204.212 874.084 224.95L577.366 658.907L575.042 658.164L585.076 132.561C585.524 107.116 577.234 82.2904 560.981 58.3305C544.201 33.3491 520.579 16.4153 491.91 7.25066C460.917 -2.65708 430.583 -1.26645 400.906 11.4226C374.049 23.307 354.973 40.2375 342.902 61.9666L13.5687 702.139C11.3096 706.534 8.30834 713.251 5.33979 722.537C-2.82374 748.074 -1.22739 772.466 10.8711 793.392C21.9473 814.844 39.6189 829.022 65.1879 837.196C120.2 854.782 160.874 837.08 186.928 782.292L415.792 312.145L418.117 312.888L401.502 867.093C400.358 918.755 425.479 952.374 475.843 968.474C526.206 984.574 566.945 972.009 595.207 929.016L903.154 467.944L905.479 468.687L819.181 984.41C809.646 1043.63 831.485 1082.16 886.498 1099.75C911.292 1107.68 934.686 1106.63 956.927 1095.83C978.393 1084.78 992.821 1066.36 1000.98 1040.82C1003.95 1031.54 1005.93 1025.35 1006.11 1019.43" fill="url(#paint0_linear_5505_755)"/>
<defs>
<linearGradient id="paint0_linear_5505_755" x1="1048.04" y1="543.553" x2="476.13" y2="968.859" gradientUnits="userSpaceOnUse">
<stop stop-color="#0B6DC7"/>
<stop offset="1" stop-color="#0B6DC7" stop-opacity="0"/>
</linearGradient>
</defs>
</svg>
