<svg width="1099" height="1121" viewBox="0 0 1099 1121" fill="none" xmlns="http://www.w3.org/2000/svg">
<path d="M83.0258 1031.25L1.33318 296.069C-1.45303 270.828 5.58633 244.44 21.8928 217.935C38.9809 191.202 63.4363 172.728 93.919 163.776C123.62 155.054 152.649 156.084 181.23 167.669C207.242 179.14 227.113 195.889 241.623 217.686L524.568 673.141L526.913 672.453L533.163 132.071C533.503 105.913 542.552 80.6714 559.528 56.5765C577.062 31.4489 601.182 14.8109 630.101 6.31823C661.366 -2.86298 691.623 -0.456336 720.873 13.5382C747.332 26.6151 765.862 44.6261 777.246 67.3418L1086.39 735.734C1088.51 740.323 1091.3 747.322 1093.97 756.959C1101.34 783.461 1098.99 808.472 1086.26 829.584C1074.53 851.269 1056.44 865.268 1030.64 872.842C975.15 889.139 935.071 869.638 910.743 812.505L696.694 322.051L694.349 322.739L693.788 892.72C693.33 945.841 667.197 979.574 616.393 994.493C565.588 1009.41 525.285 995.19 498.386 950.103L205.063 466.425L202.718 467.114L272.951 999.802C280.643 1060.95 257.635 1099.85 202.141 1116.14C177.129 1123.49 153.795 1121.66 131.913 1109.84C110.814 1097.8 96.9727 1078.41 89.6091 1051.91C86.9314 1042.27 85.1462 1035.84 85.1475 1029.76" fill="url(#paint0_linear_4625_5636)"/>
<defs>
<linearGradient id="paint0_linear_4625_5636" x1="58" y1="539.444" x2="628.241" y2="979.127" gradientUnits="userSpaceOnUse">
<stop stop-color="#0B6DC7"/>
<stop offset="1" stop-color="#0B6DC7" stop-opacity="0"/>
</linearGradient>
</defs>
</svg>
