<svg width="865" height="395" viewBox="0 0 865 395" fill="none" xmlns="http://www.w3.org/2000/svg">
<g style="mix-blend-mode:color-dodge" opacity="0.5">
<path fill-rule="evenodd" clip-rule="evenodd" d="M432.098 865.249C305.2 865.249 201.592 823.939 120.474 742.071C40.1578 658.701 0 555.802 0 432.624C0 309.447 40.1578 205.797 120.474 123.178C201.592 40.5585 306.003 0 432.098 0C558.194 0 660.195 42.0607 741.314 126.182C823.236 210.304 865 312.451 865 433.375C865 554.3 824.842 659.452 744.526 742.822C664.211 825.441 559.801 866 432.902 866M432.902 703.766C509.202 703.766 568.635 676.727 611.202 622.649C649.754 573.077 669.03 509.986 669.03 433.375C669.03 356.765 648.951 294.425 609.596 244.853C566.226 190.024 506.792 162.234 432.098 162.234C357.405 162.234 298.775 189.273 254.601 244.853C215.246 294.425 195.167 356.765 195.167 433.375C195.167 509.986 214.443 573.077 252.995 622.649C295.562 676.727 354.996 703.766 431.295 703.766H432.902Z" fill="url(#paint0_linear_4577_1928)"/>
</g>
<defs>
<linearGradient id="paint0_linear_4577_1928" x1="-367.5" y1="178.5" x2="432.5" y2="866" gradientUnits="userSpaceOnUse">
<stop stop-color="#0B6DC7"/>
<stop offset="1" stop-color="#0B6DC7" stop-opacity="0"/>
</linearGradient>
</defs>
</svg>
