<svg width="13" height="7" viewBox="0 0 13 7" fill="none" xmlns="http://www.w3.org/2000/svg">
<path fill-rule="evenodd" clip-rule="evenodd" d="M0.146894 0.146856C0.19334 0.100305 0.248515 0.0633711 0.30926 0.0381711C0.370005 0.0129711 0.435127 0 0.500894 0C0.566661 0 0.631782 0.0129711 0.692528 0.0381711C0.753273 0.0633711 0.808448 0.100305 0.854894 0.146856L6.50089 5.79242L12.1469 0.146856C12.1934 0.10038 12.2486 0.063513 12.3093 0.0383603C12.37 0.0132077 12.4352 0.000261717 12.5009 0.000261717C12.5666 0.000261717 12.6317 0.0132077 12.6925 0.0383603C12.7532 0.063513 12.8084 0.10038 12.8549 0.146856C12.9014 0.193332 12.9383 0.248507 12.9634 0.309231C12.9886 0.369955 13.0015 0.435039 13.0015 0.500766C13.0015 0.566493 12.9886 0.631577 12.9634 0.6923C12.9383 0.753024 12.9014 0.808199 12.8549 0.854675L6.85489 6.85314C6.80845 6.8997 6.75327 6.93663 6.69253 6.96183C6.63178 6.98703 6.56666 7 6.50089 7C6.43513 7 6.37001 6.98703 6.30926 6.96183C6.24852 6.93663 6.19334 6.8997 6.14689 6.85314L0.146894 0.854675C0.100331 0.808242 0.0633878 0.75308 0.0381813 0.692351C0.0129749 0.631621 0 0.566516 0 0.500766C0 0.435015 0.0129749 0.369911 0.0381813 0.309181C0.0633878 0.248451 0.100331 0.19329 0.146894 0.146856Z" fill="#343A40"/>
</svg>
