<svg width="22" height="22" viewBox="0 0 22 22" fill="none" xmlns="http://www.w3.org/2000/svg">
<path d="M15.459 1.94572L15 2.40235L14.541 1.94572C13.2734 0.684762 11.2183 0.684761 9.95068 1.94571C8.68311 3.20667 8.68311 5.25108 9.95068 6.51203L14.0819 10.6217C14.589 11.1261 15.411 11.1261 15.9181 10.6217L20.0493 6.51203C21.3169 5.25108 21.3169 3.20667 20.0493 1.94572C18.7817 0.684762 16.7266 0.684762 15.459 1.94572Z" stroke="white" stroke-width="1.5" stroke-linejoin="round"/>
<path d="M1 9H3L9.26225 11.7397C10.2241 12.1605 10.6664 13.2784 10.2528 14.2434V14.2434C9.83705 15.2136 8.71355 15.663 7.74342 15.2472L6 14.5" stroke="white" stroke-width="1.5" stroke-linecap="round" stroke-linejoin="round"/>
<path d="M1.33541 17.3292C0.964926 17.1439 0.514422 17.2941 0.32918 17.6646C0.143938 18.0351 0.294106 18.4856 0.66459 18.6708L1.33541 17.3292ZM10.3354 14.3292L9.66459 13.9938L8.99377 15.3354L9.66459 15.6708L10.3354 14.3292ZM12.7331 16.3666L12.3977 17.0374L12.7331 16.3666ZM15.4164 17.75H17V16.25H15.4164V17.75ZM17 20.25H8.88854V21.75H17V20.25ZM5.64625 19.4846L1.33541 17.3292L0.66459 18.6708L4.97542 20.8262L5.64625 19.4846ZM13.0685 15.6957L10.3354 14.3292L9.66459 15.6708L12.3977 17.0374L13.0685 15.6957ZM8.88854 20.25C7.76302 20.25 6.65295 19.9879 5.64625 19.4846L4.97542 20.8262C6.19041 21.4337 7.53015 21.75 8.88854 21.75V20.25ZM18.25 19C18.25 19.6904 17.6904 20.25 17 20.25V21.75C18.5188 21.75 19.75 20.5188 19.75 19H18.25ZM17 17.75C17.6904 17.75 18.25 18.3096 18.25 19H19.75C19.75 17.4812 18.5188 16.25 17 16.25V17.75ZM15.4164 16.25C14.6014 16.25 13.7975 16.0602 13.0685 15.6957L12.3977 17.0374C13.335 17.506 14.3685 17.75 15.4164 17.75V16.25Z" fill="white"/>
</svg>
